<svg width="18" height="18" viewBox="0 0 18 18" fill="none" xmlns="http://www.w3.org/2000/svg">
<g clip-path="url(#clip0_1883:27827)">
<path d="M10.163 17.5823H7.39829C6.93649 17.5823 6.56083 17.2074 6.56083 16.7465V10.5227H4.94781C4.48601 10.5227 4.11035 10.1476 4.11035 9.68683V7.01989C4.11035 6.55899 4.48601 6.18406 4.94781 6.18406H6.56083V4.84856C6.56083 3.52436 6.97745 2.39774 7.76552 1.59071C8.55714 0.779992 9.66344 0.351562 10.9648 0.351562L13.0733 0.35498C13.5344 0.355769 13.9094 0.730694 13.9094 1.19081V3.66699C13.9094 4.12789 13.5338 4.50282 13.0722 4.50282L11.6525 4.50334C11.2195 4.50334 11.1093 4.58998 11.0857 4.61653C11.0469 4.66057 11.0006 4.78506 11.0006 5.12883V6.18393H12.9655C13.1134 6.18393 13.2567 6.22035 13.3799 6.28897C13.6455 6.43713 13.8107 6.71727 13.8107 7.02002L13.8096 9.68696C13.8096 10.1476 13.434 10.5225 12.9722 10.5225H11.0006V16.7465C11.0006 17.2074 10.6248 17.5823 10.163 17.5823ZM7.57295 16.5722H9.98838V10.0704C9.98838 9.76268 10.2393 9.51238 10.5475 9.51238H12.7975L12.7984 7.19421H10.5474C10.2392 7.19421 9.98838 6.9439 9.98838 6.63616V5.12883C9.98838 4.73419 10.0286 4.28538 10.327 3.94806C10.6877 3.54026 11.256 3.4932 11.6522 3.4932L12.8972 3.49268V1.36486L10.964 1.3617C8.8726 1.3617 7.57295 2.69787 7.57295 4.84856V6.63616C7.57295 6.94377 7.32215 7.19421 7.01394 7.19421H5.12247V9.51238H7.01394C7.32215 9.51238 7.57295 9.76268 7.57295 10.0704V16.5722ZM13.0714 1.36512H13.0715H13.0714Z" fill="#6e7191"/>
</g>
<defs>
<clipPath id="clip0_1883:27827">
<rect width="17.2308" height="17.2308" fill="#6e7191" transform="translate(0.384766 0.384766)"/>
</clipPath>
</defs>
</svg>
