<svg width="18" height="18" viewBox="0 0 18 18" fill="none" xmlns="http://www.w3.org/2000/svg">
<g clip-path="url(#clip0_1883:27821)">
<path d="M12.9513 0.384766H5.04897C2.47708 0.384766 0.384766 2.47708 0.384766 5.04897V12.9514C0.384766 15.5232 2.47708 17.6155 5.04897 17.6155H12.9514C15.5232 17.6155 17.6155 15.5232 17.6155 12.9514V5.04897C17.6155 2.47708 15.5232 0.384766 12.9513 0.384766V0.384766ZM16.6054 12.9514C16.6054 14.9662 14.9662 16.6054 12.9513 16.6054H5.04897C3.03408 16.6054 1.3949 14.9662 1.3949 12.9514V5.04897C1.3949 3.03408 3.03408 1.3949 5.04897 1.3949H12.9514C14.9662 1.3949 16.6054 3.03408 16.6054 5.04897V12.9514Z" fill="#6e7191"/>
<path d="M9.00046 4.28906C6.40255 4.28906 4.28906 6.40255 4.28906 9.00046C4.28906 11.5984 6.40255 13.7119 9.00046 13.7119C11.5984 13.7119 13.7119 11.5984 13.7119 9.00046C13.7119 6.40255 11.5984 4.28906 9.00046 4.28906ZM9.00046 12.7017C6.95967 12.7017 5.2992 11.0414 5.2992 9.00046C5.2992 6.95967 6.95967 5.2992 9.00046 5.2992C11.0414 5.2992 12.7017 6.95967 12.7017 9.00046C12.7017 11.0414 11.0414 12.7017 9.00046 12.7017Z" fill="#6e7191"/>
<path d="M13.8238 2.61523C13.0561 2.61523 12.4316 3.2398 12.4316 4.0074C12.4316 4.77512 13.0561 5.39969 13.8238 5.39969C14.5915 5.39969 15.2161 4.77512 15.2161 4.0074C15.2161 3.23967 14.5915 2.61523 13.8238 2.61523ZM13.8238 4.38942C13.6132 4.38942 13.4418 4.218 13.4418 4.0074C13.4418 3.79667 13.6132 3.62537 13.8238 3.62537C14.0345 3.62537 14.206 3.79667 14.206 4.0074C14.206 4.218 14.0345 4.38942 13.8238 4.38942Z" fill="#6e7191"/>
</g>
<defs>
<clipPath id="clip0_1883:27821">
<rect width="17.2308" height="17.2308" fill="#6e7191" transform="translate(0.384766 0.384766)"/>
</clipPath>
</defs>
</svg>
