<svg width="17" height="14" viewBox="0 0 17 14" fill="none" xmlns="http://www.w3.org/2000/svg">
<path d="M17 1.8582C15.9306 1.90748 15.954 1.90346 15.8331 1.91358L16.4664 0.104915C16.4664 0.104915 14.4895 0.832141 13.9884 0.96223C12.6722 -0.220761 10.7158 -0.27303 9.31711 0.58662C8.17173 1.29076 7.55695 2.49995 7.76201 3.91329C5.53286 3.60395 3.65468 2.54729 2.17182 0.765994L1.70283 0.202708L1.35238 0.846279C0.909454 1.6595 0.762375 2.58931 0.938118 3.4644C1.01023 3.82341 1.1328 4.16581 1.30257 4.48643L0.900246 4.33053L0.852516 5.00277C0.804138 5.68564 1.0315 6.48277 1.46081 7.1349C1.58169 7.31855 1.73733 7.52024 1.9346 7.7192L1.72669 7.68729L1.98039 8.45758C2.31384 9.46962 3.00644 10.2526 3.90526 10.6879C3.00761 11.0688 2.28246 11.3119 1.09052 11.704L0 12.0625L1.00725 12.6132C1.39129 12.8231 2.74834 13.5244 4.08917 13.7348C7.06967 14.2022 10.4254 13.8216 12.6845 11.787C14.5873 10.0732 15.2117 7.63554 15.082 5.09874C15.0624 4.7147 15.1676 4.34817 15.3782 4.06685C15.8001 3.50357 16.9974 1.86196 17 1.8582ZM14.5818 3.47023C14.232 3.93728 14.0567 4.53377 14.0881 5.14959C14.219 7.70843 13.5228 9.69284 12.0186 11.0474C10.2616 12.6299 7.42751 13.251 4.24339 12.7515C3.66674 12.6611 3.07077 12.4587 2.57752 12.2565C3.57686 11.9126 4.34857 11.6062 5.59486 11.0163L7.33465 10.1928L5.4138 10.0699C4.49371 10.011 3.72757 9.56508 3.25663 8.8411C3.50669 8.82657 3.7478 8.78611 3.98788 8.71918L5.81989 8.20894L3.97257 7.75655C3.07492 7.53671 2.56326 6.99962 2.29205 6.5877C2.11398 6.31701 1.99764 6.03972 1.92786 5.78408C2.11307 5.83375 2.32902 5.86916 2.67726 5.90366L4.38709 6.07279L3.03238 5.016C2.05626 4.25466 1.66509 3.11084 1.95185 2.01124C4.99824 5.17099 8.5751 4.93351 8.93514 5.01703C8.8559 4.24726 8.85382 4.24545 8.83307 4.17217C8.37199 2.54223 9.38248 1.71462 9.83824 1.43447C10.7902 0.849391 12.3014 0.761195 13.348 1.72512C13.5741 1.93316 13.8798 2.015 14.1659 1.94393C14.4227 1.88012 14.6335 1.81254 14.8399 1.739L14.4103 2.9657L14.9587 2.96609C14.8552 3.10487 14.731 3.27102 14.5818 3.47023Z" fill="#6e7191"/>
</svg>
